<svg xmlns="http://www.w3.org/2000/svg" viewBox="0 0 512 512" width="96px" height="96px">
    <path fill="#D6E5E5"
        d="M484.7,255.9c-9.1-18.9-23.9-34.6-41-46.6c-35.3-24.8-80.4-36.6-123.2-37.3c-39.4-0.7-78.9,8.2-114.6,25c-34.7,16.3-71.3,43.2-81.1,82.4c-5.6,22.2-2.6,43.7,10.8,62.5c13.3,18.7,31.6,33,48.1,48.6c1.4,1.4,1.8,3,1.5,4.5c0.2,1.3,0,2.7-1,4c-7.3,9.3-14.8,18.4-23.5,26.5c-6.9,6.4-14.9,11.2-23,15.9c9.3-1.9,18.8-3.3,27.8-6.4c10.2-3.6,19.5-9.6,29.8-13c4.8-1.6,9.5-2.8,14.6-3.2c4.7-0.4,9.4-0.6,13.9-2.2c3.7-1.3,6.3,1.6,6.5,4.6c0.1,0,0.2,0.1,0.4,0.1c24.5,9.6,51.4,12.1,77.5,10.8c26-1.3,51.9-5.9,76.9-13.5c23.7-7.2,45.8-17.2,64.7-33.6c17.8-15.5,32.9-35.9,39.7-58.7C496.4,303,495.3,277.8,484.7,255.9z M250.6,281.2c34.1-0.1,67.9-5.9,102-6c4,0,7.6,5,4.1,8.3c-1.9,1.9-3.6,3.1-6.4,3.2c-1.6,0-2.8-0.5-3.7-1.4c-31.8,0.8-63.4,5.8-95.3,5.9C245,291.2,244.2,281.2,250.6,281.2z M274.6,302.2c28-0.1,56-2.9,84-1.5c2.9,0.1,6.3,2.5,5.3,5.9c-0.9,3.2-2.7,4.2-5.1,6.2c-3,2.4-6.2,0.4-7.2-2.4c-25.4-0.6-50.8,1.7-76.2,1.8C269,312.2,268.2,302.2,274.6,302.2z M377.4,342.2c-32.3,0.2-63.6,10.3-96,10.5c-6.4,0-7.2-9.9-0.8-10c30.4-0.2,60-9.1,90.3-10.4c0.4-0.1,0.8-0.1,1.2-0.1h4.5C383,332.2,383.8,342.1,377.4,342.2z" />
    <path fill="#74CCCF"
        d="M401.8,138.9c-7.1-11.5-17.4-20.6-28.4-28.2c-26.5-18.4-55.9-31.8-88.1-35.9c-28-3.5-56.5-1.8-84.3,2.6c-21.6,3.5-42.8,9.1-63.1,17.3c-39.2,15.7-77.5,39.5-103.1,73.8c-11.9,15.9-20.9,34.3-24.3,54c-3.7,21.5-1,43.5,6.6,63.9c4.5,12.1,10.6,22.4,19.1,32.2c8.2,9.6,17.3,18.5,24.9,28.7c7.6,10.2,13.8,21.8,11,35c-0.9,4.2-2.4,8.1-4.3,11.9c10.6-7.7,19.7-16.8,25.7-29.2c0.7-1.5,2.4-2.7,4.1-2.8c10.4-0.1,20.3-2,30-5.1c0.6-1.7,2.1-3.2,4-3.7c-7-8.8-12.7-18.4-16.1-29.3c-8.9-28.3-0.2-59.7,17.1-83.1c24.3-32.9,63.3-53.7,101.6-66c38-12.2,78-16.3,117.6-10.6c18.4,2.7,37.1,7.2,55,13.9C410.2,164.9,409.3,151,401.8,138.9z" />
    <path fill="#010101"
        d="M501.3,273.5c-4.7-21.7-17-40.8-32.5-56.4c-15-15-33.3-26.5-53-35c0.3-0.4,0.5-0.9,0.6-1.5c5.7-21.2,0.1-41.7-14.2-58c-14.3-16.4-33.7-27.6-52.6-37.8c-49.3-26.4-106.7-25.2-160.4-15.4c-41.9,7.6-82.9,25.1-117.4,49.9c-33.2,23.8-61.6,57-70.4,97.7c-6.8,31.5-0.4,68.4,17.4,95.3c10.3,15.6,24.9,27.8,35.8,43c6.2,8.6,9.7,17.2,7,27.8c-2.5,9.9-10.2,18.4-16.9,25.7c-4,4.4,1.8,10.2,6.6,7.4c19.9-11.4,38.8-23.6,49.8-44.2c12.4-0.5,24.4-3.4,36.1-7.7c1-0.4,1.7-1,2.3-1.9c10.9,11.7,23.6,22.2,35,32.8c-6.3,7.9-12.9,15.5-20.2,22.6c-14.2,13.8-35.3,18.9-48,34.5c-3.4,4.3,1.5,9.7,5.5,8.1c1.2,0.4,2.7,0.3,4.1-0.7c15.5-10.4,35.8-9.8,53.1-15.5c9.8-3.2,18.7-8.8,28.3-12.5c8.5-3.3,17.6-2.7,26.3-4.9c0.2,1.3,1.1,2.5,2.8,3.2c49.9,19.6,107.3,13.4,157.7-0.9c23.8-6.7,46.1-16.2,65.8-31.4c18.8-14.6,34.5-33.5,44.2-55.3C503.8,320.8,506.3,296.8,501.3,273.5z M127.6,357.1c-9.7,3.1-19.6,5-30,5.1c-1.7,0-3.4,1.3-4.1,2.8c-6,12.5-15.2,21.6-25.7,29.2c1.9-3.8,3.4-7.7,4.3-11.9c2.8-13.2-3.5-24.8-11-35c-7.5-10.2-16.6-19.1-24.9-28.7c-8.4-9.8-14.5-20.1-19.1-32.2C9.5,266,6.8,244,10.5,222.5c3.4-19.7,12.4-38.1,24.3-54c25.6-34.2,63.9-58.1,103.1-73.8c20.4-8.1,41.5-13.8,63.1-17.3c27.8-4.4,56.3-6.2,84.3-2.6c32.2,4.1,61.6,17.4,88.1,35.9c11,7.7,21.3,16.7,28.4,28.2c7.4,12.1,8.4,26,4.8,39.5c-17.9-6.8-36.6-11.3-55-13.9c-39.6-5.7-79.6-1.6-117.6,10.6c-38.3,12.3-77.3,33.1-101.6,66c-17.2,23.3-25.9,54.7-17.1,83.1c3.4,10.9,9.1,20.5,16.1,29.3C129.7,353.9,128.2,355.4,127.6,357.1z M489.5,326.2c-6.8,22.9-21.8,43.2-39.7,58.7c-18.9,16.4-40.9,26.4-64.7,33.6c-25,7.5-50.9,12.1-76.9,13.5c-26.1,1.3-53-1.2-77.5-10.8c-0.1,0-0.2-0.1-0.4-0.1c-0.2-3-2.8-5.9-6.5-4.6c-4.5,1.6-9.2,1.8-13.9,2.2c-5.1,0.4-9.8,1.7-14.6,3.2c-10.3,3.4-19.5,9.4-29.8,13c-9,3.1-18.5,4.5-27.8,6.4c8.1-4.7,16-9.5,23-15.9c8.7-8,16.2-17.2,23.5-26.5c1-1.3,1.3-2.7,1-4c0.3-1.5,0-3.2-1.5-4.5c-16.5-15.7-34.8-29.9-48.1-48.6c-13.4-18.8-16.4-40.3-10.8-62.5c9.8-39.2,46.4-66.1,81.1-82.4c35.7-16.8,75.1-25.7,114.6-25c42.8,0.8,87.9,12.5,123.2,37.3c17.1,12,31.8,27.7,41,46.6C495.3,277.8,496.4,303,489.5,326.2z" />
    <path fill="#010101"
        d="M352.6 275.2c-34.1.1-67.9 5.9-102 6-6.4 0-5.7 10 .8 10 31.9-.1 63.5-5.2 95.3-5.9.9.9 2.1 1.4 3.7 1.4 2.8-.1 4.4-1.3 6.4-3.2C360.2 280.1 356.6 275.2 352.6 275.2zM358.6 300.7c-28-1.4-56 1.4-84 1.5-6.4 0-5.6 10 .8 10 25.4-.1 50.8-2.4 76.2-1.8 1 2.9 4.2 4.9 7.2 2.4 2.5-2 4.2-3 5.1-6.2C364.9 303.2 361.6 300.8 358.6 300.7zM376.6 332.2h-4.5c-.4 0-.8.1-1.2.1-30.3 1.2-59.8 10.2-90.3 10.4-6.4 0-5.7 10 .8 10 32.3-.2 63.6-10.3 96-10.5C383.8 342.1 383 332.2 376.6 332.2z" />
</svg>